<mxfile host="app.diagrams.net" modified="2023-04-28T05:03:25.370Z" agent="Mozilla/5.0 (Windows NT 10.0; Win64; x64) AppleWebKit/537.36 (KHTML, like Gecko) Chrome/112.0.0.0 Safari/537.36" version="21.2.3" etag="Jh9rTaUDBrwuzC8vZffr" type="github">
  <diagram name="Page-1" id="mcmQ00QKRm8kLk0m6zQc">
    <mxGraphModel>
      <root>
        <mxCell id="0" />
        <mxCell id="1" parent="0" />
      </root>
    </mxGraphModel>
  </diagram>
</mxfile>
